<?xml version="1.0" encoding="UTF-8"?>
<!DOCTYPE svg PUBLIC "-//W3C//DTD SVG 1.1//EN" "http://www.w3.org/Graphics/SVG/1.1/DTD/svg11.dtd">
<svg version="1.1" xmlns="http://www.w3.org/2000/svg" xmlns:xlink="http://www.w3.org/1999/xlink" x="0" y="0" width="119.965" height="47.292" viewBox="0, 0, 119.965, 47.292">
  <g id="Layer_1" transform="translate(-28.998, -12.425)">
    <path d="M50.244,58.217 L31.498,47.394 L31.498,25.748 L50.244,14.925 L68.99,25.748 L68.99,47.394 z" fill-opacity="0" stroke="#001156" stroke-width="3" stroke-linecap="round" stroke-linejoin="round"/>
    <path d="M31.702,46.832 L49.547,15.226 L67.787,46.832 L31.702,46.832 z" fill="#001156"/>
    <g>
      <path d="M79.156,44.891 Q77.538,44.891 76.668,44.419 Q75.797,43.946 75.461,43.038 Q75.125,42.13 75.125,40.836 L75.125,33.025 L73.732,33.025 L73.732,30.363 L75.125,30.363 L75.125,25.984 L79.23,25.984 L79.23,30.363 L81.27,30.363 L81.27,33.025 L79.23,33.025 L79.23,40.438 Q79.23,41.06 79.591,41.334 Q79.952,41.607 80.499,41.607 Q80.822,41.607 81.096,41.57 Q81.37,41.533 81.594,41.508 L81.594,44.692 Q81.27,44.742 80.574,44.817 Q79.877,44.891 79.156,44.891 z" fill="#292867"/>
      <path d="M83.41,44.742 L83.41,24.591 L87.44,24.591 L87.44,31.631 Q88.236,30.835 89.107,30.475 Q89.978,30.114 90.973,30.114 Q91.843,30.114 92.428,30.549 Q93.013,30.985 93.311,31.743 Q93.61,32.502 93.61,33.472 L93.61,44.742 L89.579,44.742 L89.579,34.045 Q89.579,33.522 89.405,33.248 Q89.231,32.975 88.758,32.975 Q88.51,32.975 88.161,33.112 Q87.813,33.248 87.44,33.497 L87.44,44.742 z" fill="#292867"/>
      <path d="M98.585,44.991 Q97.715,44.991 97.105,44.556 Q96.496,44.12 96.197,43.349 Q95.899,42.578 95.899,41.632 L95.899,30.363 L99.954,30.363 L99.954,41.16 Q99.954,41.682 100.14,41.968 Q100.327,42.254 100.799,42.254 Q101.073,42.254 101.372,42.118 Q101.67,41.981 101.994,41.807 L101.994,30.363 L106.024,30.363 L106.024,44.742 L101.994,44.742 L101.994,43.424 Q101.222,44.145 100.364,44.568 Q99.506,44.991 98.585,44.991 z" fill="#292867"/>
      <path d="M108.76,44.742 L108.76,24.591 L112.791,24.591 L112.791,44.742 z" fill="#292867"/>
      <path d="M120.105,44.991 Q118.538,44.991 117.418,44.431 Q116.299,43.871 115.701,42.789 Q115.104,41.707 115.104,40.189 L115.104,34.915 Q115.104,33.373 115.701,32.303 Q116.299,31.233 117.431,30.674 Q118.562,30.114 120.105,30.114 Q121.697,30.114 122.754,30.661 Q123.812,31.208 124.347,32.278 Q124.882,33.348 124.882,34.915 L124.882,37.801 L119.11,37.801 L119.11,40.563 Q119.11,41.11 119.234,41.458 Q119.359,41.807 119.582,41.956 Q119.806,42.105 120.105,42.105 Q120.403,42.105 120.64,41.968 Q120.876,41.831 121.013,41.533 Q121.15,41.234 121.15,40.712 L121.15,39.194 L124.882,39.194 L124.882,40.587 Q124.882,42.777 123.613,43.884 Q122.344,44.991 120.105,44.991 z M119.11,35.91 L121.15,35.91 L121.15,34.467 Q121.15,33.895 121.013,33.572 Q120.876,33.248 120.64,33.124 Q120.403,33 120.08,33 Q119.781,33 119.57,33.149 Q119.359,33.298 119.234,33.659 Q119.11,34.02 119.11,34.691 z" fill="#292867"/>
      <path d="M131.798,44.991 Q130.23,44.991 129.111,44.431 Q127.991,43.871 127.394,42.789 Q126.797,41.707 126.797,40.189 L126.797,34.915 Q126.797,33.373 127.394,32.303 Q127.991,31.233 129.123,30.674 Q130.255,30.114 131.798,30.114 Q133.39,30.114 134.447,30.661 Q135.504,31.208 136.039,32.278 Q136.574,33.348 136.574,34.915 L136.574,37.801 L130.803,37.801 L130.803,40.563 Q130.803,41.11 130.927,41.458 Q131.051,41.807 131.275,41.956 Q131.499,42.105 131.798,42.105 Q132.096,42.105 132.333,41.968 Q132.569,41.831 132.706,41.533 Q132.843,41.234 132.843,40.712 L132.843,39.194 L136.574,39.194 L136.574,40.587 Q136.574,42.777 135.305,43.884 Q134.037,44.991 131.798,44.991 z M130.803,35.91 L132.843,35.91 L132.843,34.467 Q132.843,33.895 132.706,33.572 Q132.569,33.248 132.333,33.124 Q132.096,33 131.773,33 Q131.474,33 131.263,33.149 Q131.051,33.298 130.927,33.659 Q130.803,34.02 130.803,34.691 z" fill="#292867"/>
      <path d="M138.788,44.742 L138.788,30.363 L142.844,30.363 L142.844,31.806 Q143.64,31.009 144.498,30.562 Q145.356,30.114 146.302,30.114 Q147.197,30.114 147.782,30.549 Q148.366,30.985 148.665,31.743 Q148.964,32.502 148.964,33.472 L148.964,44.742 L144.933,44.742 L144.933,34.045 Q144.933,33.522 144.759,33.248 Q144.585,32.975 144.112,32.975 Q143.864,32.975 143.528,33.112 Q143.192,33.248 142.844,33.497 L142.844,44.742 z" fill="#292867"/>
    </g>
  </g>
</svg>
