<?xml version="1.0" encoding="UTF-8"?>
<!DOCTYPE svg PUBLIC "-//W3C//DTD SVG 1.1//EN" "http://www.w3.org/Graphics/SVG/1.1/DTD/svg11.dtd">
<svg version="1.1" xmlns="http://www.w3.org/2000/svg" xmlns:xlink="http://www.w3.org/1999/xlink" x="0" y="0" width="212.031" height="108.292" viewBox="0, 0, 212.031, 108.292">
  <g id="Layer_1" transform="translate(-6.661, 11.959)">
    <g>
      <path d="M56.331,79.833 L24.161,61.26 L24.161,24.114 L56.331,5.541 L88.5,24.114 L88.5,61.26 z" fill-opacity="0" stroke="#00E100" stroke-width="9" stroke-linecap="round"/>
      <path d="M56.331,63.667 L38.162,53.177 L38.162,32.197 L56.331,21.708 L74.499,32.197 L74.499,53.177 z" fill-opacity="0" stroke="#00E100" stroke-width="9" stroke-linecap="round"/>
      <path d="M45.521,49.167 L55.718,31.107 L66.14,49.167 L45.521,49.167 z" fill="#00E100"/>
    </g>
    <g>
      <path d="M113.243,54.015 Q110.713,54.015 109.218,52.553 Q107.723,51.091 107.723,48.594 L107.723,39.657 L102.828,39.657 L102.828,35.945 L107.723,35.945 L107.723,30.852 L111.863,30.852 L111.863,35.945 L118.796,35.945 L118.796,39.657 L111.863,39.657 L111.863,48.496 Q111.863,49.284 112.307,49.793 Q112.75,50.303 113.539,50.303 L118.467,50.303 L118.467,54.015 z" fill="#000000"/>
      <path d="M120.616,54.015 L120.616,30.031 L124.723,30.031 L124.723,35.945 L124.624,39.395 L124.69,39.395 Q124.986,37.62 126.234,36.618 Q127.483,35.616 129.487,35.616 Q132.148,35.616 133.742,37.39 Q135.335,39.165 135.335,42.154 L135.335,54.015 L131.229,54.015 L131.229,42.582 Q131.229,40.939 130.358,40.052 Q129.487,39.165 128.009,39.165 Q126.464,39.165 125.594,40.084 Q124.723,41.004 124.723,42.713 L124.723,54.015 z" fill="#000000"/>
      <path d="M144.614,54.344 Q141.164,54.344 139.193,52.422 Q137.222,50.5 137.222,47.181 L137.222,35.945 L141.329,35.945 L141.329,47.148 Q141.329,48.89 142.183,49.826 Q143.037,50.763 144.614,50.763 Q146.158,50.763 147.029,49.826 Q147.9,48.89 147.9,47.148 L147.9,35.945 L152.007,35.945 L152.007,47.181 Q152.007,50.5 150.003,52.422 Q147.998,54.344 144.614,54.344 z" fill="#000000"/>
      <path d="M164.21,54.015 Q161.516,54.015 159.889,52.405 Q158.263,50.795 158.263,48.167 L158.263,33.743 L152.316,33.743 L152.316,30.031 L162.37,30.031 L162.37,48.068 Q162.37,49.087 162.945,49.695 Q163.52,50.303 164.505,50.303 L169.795,50.303 L169.795,54.015 z" fill="#000000"/>
      <path d="M177.99,54.344 Q175.69,54.344 173.981,53.457 Q172.273,52.57 171.336,50.976 Q170.4,49.383 170.4,47.247 L170.4,42.713 Q170.4,40.577 171.336,38.984 Q172.273,37.39 173.981,36.503 Q175.69,35.616 177.99,35.616 Q180.257,35.616 181.949,36.503 Q183.641,37.39 184.577,38.984 Q185.514,40.577 185.514,42.713 L185.514,45.966 L174.376,45.966 L174.376,47.247 Q174.376,51.091 178.023,51.091 Q180.848,51.091 181.341,49.218 L185.382,49.218 Q184.922,51.551 182.902,52.948 Q180.881,54.344 177.99,54.344 z M174.376,42.713 L174.376,43.403 L181.538,43.37 L181.538,42.68 Q181.538,40.807 180.651,39.805 Q179.764,38.803 177.99,38.803 Q176.183,38.803 175.279,39.822 Q174.376,40.84 174.376,42.713 z" fill="#000000"/>
      <path d="M194.661,54.344 Q192.361,54.344 190.653,53.457 Q188.944,52.57 188.008,50.976 Q187.071,49.383 187.071,47.247 L187.071,42.713 Q187.071,40.577 188.008,38.984 Q188.944,37.39 190.653,36.503 Q192.361,35.616 194.661,35.616 Q196.928,35.616 198.62,36.503 Q200.312,37.39 201.249,38.984 Q202.185,40.577 202.185,42.713 L202.185,45.966 L191.047,45.966 L191.047,47.247 Q191.047,51.091 194.694,51.091 Q197.519,51.091 198.012,49.218 L202.054,49.218 Q201.594,51.551 199.573,52.948 Q197.552,54.344 194.661,54.344 z M191.047,42.713 L191.047,43.403 L198.209,43.37 L198.209,42.68 Q198.209,40.807 197.322,39.805 Q196.435,38.803 194.661,38.803 Q192.854,38.803 191.95,39.822 Q191.047,40.84 191.047,42.713 z" fill="#000000"/>
      <path d="M203.973,54.015 L203.973,35.945 L207.981,35.945 L207.981,39.395 L208.047,39.395 Q208.342,37.62 209.591,36.618 Q210.839,35.616 212.844,35.616 Q215.505,35.616 217.099,37.39 Q218.692,39.165 218.692,42.154 L218.692,54.015 L214.585,54.015 L214.585,42.582 Q214.585,40.939 213.714,40.052 Q212.844,39.165 211.365,39.165 Q209.821,39.165 208.95,40.084 Q208.08,41.004 208.08,42.713 L208.08,54.015 z" fill="#000000"/>
    </g>
  </g>
</svg>
